<svg width="33" height="32" viewBox="0 0 33 32" fill="none" xmlns="http://www.w3.org/2000/svg">
<path d="M28.8208 9.52202L28.1627 8.37989C27.6649 7.51611 27.4161 7.08423 26.9927 6.91201C26.5692 6.73979 26.0903 6.87569 25.1325 7.14747L23.5056 7.60574C22.8941 7.74675 22.2525 7.66675 21.6943 7.37989L21.2451 7.12073C20.7663 6.81407 20.398 6.36194 20.1941 5.83049L19.7489 4.50065C19.4561 3.62062 19.3097 3.18061 18.9612 2.92893C18.6128 2.67725 18.1499 2.67725 17.224 2.67725H15.7376C14.8119 2.67725 14.3489 2.67725 14.0004 2.92893C13.6519 3.18061 13.5055 3.62062 13.2128 4.50065L12.7675 5.83049C12.5637 6.36194 12.1954 6.81407 11.7166 7.12073L11.2675 7.37989C10.7091 7.66675 10.0676 7.74675 9.45611 7.60574L7.82914 7.14747C6.87135 6.87569 6.39247 6.73979 5.96903 6.91201C5.54559 7.08423 5.29674 7.51611 4.799 8.37989L4.1409 9.52202C3.67435 10.3317 3.44107 10.7365 3.48635 11.1675C3.53162 11.5984 3.84391 11.9457 4.46848 12.6403L5.8432 14.1772C6.1792 14.6026 6.41775 15.3439 6.41775 16.0104C6.41775 16.6772 6.17928 17.4183 5.84324 17.8438L4.46848 19.3807C3.84391 20.0754 3.53163 20.4226 3.48635 20.8536C3.44107 21.2846 3.67435 21.6894 4.1409 22.499L4.79899 23.6411C5.29671 24.5048 5.54559 24.9368 5.96903 25.109C6.39247 25.2812 6.87136 25.1454 7.82916 24.8735L9.45606 24.4152C10.0676 24.2742 10.7093 24.3543 11.2677 24.6412L11.7168 24.9004C12.1955 25.2071 12.5637 25.6591 12.7675 26.1906L13.2128 27.5206C13.5055 28.4006 13.6519 28.8406 14.0004 29.0923C14.3489 29.3439 14.8119 29.3439 15.7376 29.3439H17.224C18.1499 29.3439 18.6128 29.3439 18.9612 29.0923C19.3097 28.8406 19.4561 28.4006 19.7489 27.5206L20.1943 26.1906C20.398 25.6591 20.7661 25.2071 21.2449 24.9004L21.694 24.6412C22.2524 24.3543 22.894 24.2742 23.5056 24.4152L25.1325 24.8735C26.0903 25.1454 26.5692 25.2812 26.9927 25.109C27.4161 24.9368 27.6649 24.5048 28.1627 23.6411L28.8208 22.499C29.2873 21.6894 29.5205 21.2846 29.4753 20.8536C29.43 20.4226 29.1177 20.0754 28.4932 19.3807L27.1184 17.8438C26.7824 17.4183 26.5439 16.6772 26.5439 16.0104C26.5439 15.3439 26.7825 14.6026 27.1184 14.1772L28.4932 12.6403C29.1177 11.9457 29.43 11.5984 29.4753 11.1675C29.5205 10.7365 29.2873 10.3317 28.8208 9.52202Z" fill="#3E88F7"/>
<path d="M21.09 16.0002C21.09 18.5775 19.0007 20.6668 16.4233 20.6668C13.846 20.6668 11.7567 18.5775 11.7567 16.0002C11.7567 13.4228 13.846 11.3335 16.4233 11.3335C19.0007 11.3335 21.09 13.4228 21.09 16.0002Z" stroke="#F0F3F7" stroke-width="2"/>
</svg>
